<svg width="28" height="26" viewBox="0 0 28 26" fill="none" xmlns="http://www.w3.org/2000/svg">
<g clip-path="url(#clip0_2_38)">
<path d="M27.5 11.3825V11.4424C26.6996 11.5376 25.8985 11.5987 25.11 11.7713C20.8181 12.7106 17.4532 16.0475 16.4413 20.3309L16.0316 22.8842C15.9127 22.248 15.8852 21.5944 15.7729 20.9564C14.9737 16.4046 11.5115 12.7652 7.01165 11.7707C6.21957 11.5957 5.40778 11.5652 4.62108 11.4118C5.74468 11.2309 6.85694 11.1297 7.95247 10.7984C11.7349 9.65593 14.7777 6.38377 15.6433 2.51612C15.8297 1.6834 15.8876 0.8375 16.031 -0.000610352H16.0907C16.2627 3.91377 18.1808 7.55437 21.5313 9.60981C23.3849 10.7469 25.3406 11.2213 27.5 11.3819V11.3825Z" fill="#FDB90E"/>
<path d="M6.59292 26C6.46508 25.5267 6.4615 25.0385 6.32172 24.5646C5.95794 23.3341 4.85285 22.0527 3.68862 21.5141C3.03573 21.2122 2.31294 21.1642 1.63435 20.9977C2.04712 20.8761 2.48199 20.8785 2.90192 20.7706C4.70889 20.3046 6.07084 18.7056 6.45732 16.9078C6.51227 16.6526 6.45732 16.2308 6.65205 16.0553C6.67415 17.9753 7.83778 19.7402 9.58143 20.516C10.2302 20.8048 10.8538 20.8779 11.5503 20.9683C11.5264 21.081 11.432 21.0768 11.343 21.0888C11.0963 21.1223 10.8502 21.1193 10.5927 21.175C8.26966 21.677 6.70581 23.6121 6.65205 25.9994H6.59232L6.59292 26Z" fill="#FDB90E"/>
<path d="M0.500002 15.5161C1.08779 15.5341 1.57104 15.1351 1.76757 14.6007C1.83029 14.43 1.74547 14.155 1.93303 14.1982C1.89779 14.6361 2.21677 15.1549 2.59728 15.3592C2.8189 15.4778 3.09308 15.4748 3.24719 15.6354C2.53456 15.6641 1.95394 16.244 1.90257 16.9545L1.6469 16.3129C1.38766 15.9289 0.975489 15.6467 0.499405 15.6365V15.5167L0.500002 15.5161Z" fill="#FDB90E"/>
</g>
<defs>
<clipPath id="clip0_2_38">
<rect width="27" height="26" fill="white" transform="translate(0.5)"/>
</clipPath>
</defs>
</svg>
