<svg width="36" height="36" viewBox="0 0 36 36" fill="none" xmlns="http://www.w3.org/2000/svg">
<mask id="mask0_9_584" style="mask-type:alpha" maskUnits="userSpaceOnUse" x="0" y="0" width="36" height="36">
<rect width="36" height="36" fill="#D9D9D9"/>
</mask>
<g mask="url(#mask0_9_584)">
<path d="M18 26.25C19.875 26.25 21.4688 25.5938 22.7812 24.2812C24.0938 22.9688 24.75 21.375 24.75 19.5C24.75 17.625 24.0938 16.0312 22.7812 14.7188C21.4688 13.4062 19.875 12.75 18 12.75C16.125 12.75 14.5312 13.4062 13.2188 14.7188C11.9062 16.0312 11.25 17.625 11.25 19.5C11.25 21.375 11.9062 22.9688 13.2188 24.2812C14.5312 25.5938 16.125 26.25 18 26.25ZM18 23.25C16.95 23.25 16.0625 22.8875 15.3375 22.1625C14.6125 21.4375 14.25 20.55 14.25 19.5C14.25 18.45 14.6125 17.5625 15.3375 16.8375C16.0625 16.1125 16.95 15.75 18 15.75C19.05 15.75 19.9375 16.1125 20.6625 16.8375C21.3875 17.5625 21.75 18.45 21.75 19.5C21.75 20.55 21.3875 21.4375 20.6625 22.1625C19.9375 22.8875 19.05 23.25 18 23.25ZM6 31.5C5.175 31.5 4.46875 31.2063 3.88125 30.6188C3.29375 30.0312 3 29.325 3 28.5V10.5C3 9.675 3.29375 8.96875 3.88125 8.38125C4.46875 7.79375 5.175 7.5 6 7.5H10.725L12.6 5.475C12.875 5.175 13.2063 4.9375 13.5938 4.7625C13.9812 4.5875 14.3875 4.5 14.8125 4.5H21.1875C21.6125 4.5 22.0187 4.5875 22.4062 4.7625C22.7938 4.9375 23.125 5.175 23.4 5.475L25.275 7.5H30C30.825 7.5 31.5312 7.79375 32.1188 8.38125C32.7063 8.96875 33 9.675 33 10.5V28.5C33 29.325 32.7063 30.0312 32.1188 30.6188C31.5312 31.2063 30.825 31.5 30 31.5H6Z" fill="#6E6E6E"/>
</g>
</svg>
