<svg width="18" height="18" viewBox="0 0 18 18" fill="none" xmlns="http://www.w3.org/2000/svg">
<mask id="mask0_4_260" style="mask-type:alpha" maskUnits="userSpaceOnUse" x="0" y="0" width="18" height="18">
<rect width="18" height="18" fill="#D9D9D9"/>
</mask>
<g mask="url(#mask0_4_260)">
<path d="M12.75 16.5V14.25H5.25C4.8375 14.25 4.48438 14.1031 4.19063 13.8094C3.89688 13.5156 3.75 13.1625 3.75 12.75V5.25H1.5C1.2875 5.25 1.10938 5.17812 0.965625 5.03438C0.821875 4.89062 0.75 4.7125 0.75 4.5C0.75 4.2875 0.821875 4.10938 0.965625 3.96562C1.10938 3.82187 1.2875 3.75 1.5 3.75H3.75V1.5C3.75 1.2875 3.82187 1.10938 3.96562 0.965625C4.10938 0.821875 4.2875 0.75 4.5 0.75C4.7125 0.75 4.89062 0.821875 5.03438 0.965625C5.17812 1.10938 5.25 1.2875 5.25 1.5V12.75H16.5C16.7125 12.75 16.8906 12.8219 17.0344 12.9656C17.1781 13.1094 17.25 13.2875 17.25 13.5C17.25 13.7125 17.1781 13.8906 17.0344 14.0344C16.8906 14.1781 16.7125 14.25 16.5 14.25H14.25V16.5C14.25 16.7125 14.1781 16.8906 14.0344 17.0344C13.8906 17.1781 13.7125 17.25 13.5 17.25C13.2875 17.25 13.1094 17.1781 12.9656 17.0344C12.8219 16.8906 12.75 16.7125 12.75 16.5ZM12.75 11.25V5.25H6.75V3.75H12.75C13.1625 3.75 13.5156 3.89688 13.8094 4.19063C14.1031 4.48438 14.25 4.8375 14.25 5.25V11.25H12.75Z" fill="white"/>
</g>
</svg>
