<svg width="135" height="85" viewBox="0 0 135 85" fill="none" xmlns="http://www.w3.org/2000/svg">
<g clip-path="url(#clip0_2_154)">
<path d="M124.796 74.7858H43.9387C43.0719 74.7858 42.3686 74.0848 42.3686 73.2193C42.3686 72.3538 43.0712 71.6528 43.9387 71.6528H124.797C128.692 71.6528 131.861 68.4912 131.861 64.6046V10.1804C131.861 6.29382 128.692 3.13226 124.797 3.13226H33.3552C29.4604 3.13226 26.2908 6.29382 26.2908 10.1804V37.2385C26.2908 38.1033 25.5882 38.805 24.7206 38.805C23.8531 38.805 23.1505 38.104 23.1505 37.2385V10.1804C23.1513 4.56653 27.7284 0 33.3552 0H124.797C130.423 0 135.001 4.56653 135.001 10.1804V64.6054C135.001 70.2185 130.424 74.7858 124.797 74.7858H124.796Z" fill="#919192"/>
<path d="M103.795 74.7858C103.363 74.7858 102.934 74.61 102.625 74.2636L83.3199 52.727L61.8186 28.7403C60.9586 27.7808 59.774 27.2527 58.484 27.2527C57.1941 27.2527 56.0095 27.7808 55.1495 28.7403L41.3241 44.1642C40.7465 44.8088 39.754 44.8644 39.1079 44.2874C38.4617 43.7111 38.406 42.7209 38.9844 42.0755L52.8098 26.6516C54.2526 25.0423 56.3205 24.1197 58.4848 24.1197C60.6491 24.1197 62.717 25.0423 64.1591 26.6516L85.6612 50.6391L104.966 72.1757C105.543 72.8203 105.488 73.8106 104.842 74.3868C104.543 74.6543 104.169 74.7858 103.796 74.7858H103.795Z" fill="#919192"/>
<path d="M133.431 62.4017C132.999 62.4017 132.57 62.2259 132.26 61.8796L108.193 35.0296C107.333 34.0702 106.148 33.542 104.858 33.542C103.568 33.542 102.383 34.0702 101.523 35.0296L85.6596 52.7262C85.082 53.3709 84.0894 53.4265 83.4433 52.8494C82.7972 52.2732 82.7415 51.2829 83.3198 50.6383L99.1837 32.9417C100.626 31.3324 102.694 30.4097 104.859 30.4097C107.022 30.4097 109.091 31.3324 110.534 32.9417L134.602 59.7917C135.179 60.4363 135.124 61.4265 134.478 62.0028C134.178 62.2703 133.805 62.4017 133.432 62.4017H133.431Z" fill="#919192"/>
<path d="M85.3975 24.6366C81.2158 24.6366 77.8135 21.2421 77.8135 17.07C77.8135 12.8979 81.2158 9.50348 85.3975 9.50348C89.5793 9.50348 92.9816 12.8979 92.9816 17.07C92.9816 21.2421 89.5793 24.6366 85.3975 24.6366ZM85.3975 12.6357C82.9471 12.6357 80.953 14.6252 80.953 17.07C80.953 19.5148 82.9471 21.5043 85.3975 21.5043C87.848 21.5043 89.8421 19.5148 89.8421 17.07C89.8421 14.6252 87.848 12.6357 85.3975 12.6357Z" fill="#919192"/>
<path d="M24.7206 85C18.1171 85 11.9096 82.4342 7.24066 77.776C2.57169 73.1179 0 66.924 0 60.3356C0 53.7473 2.57169 47.5541 7.24066 42.896C11.9096 38.2378 18.1178 35.672 24.7206 35.672C31.3235 35.672 37.5317 38.2378 42.2006 42.896C46.8696 47.5541 49.4413 53.748 49.4413 60.3356C49.4413 66.9232 46.8696 73.1171 42.2006 77.7753C37.5317 82.4335 31.3235 84.9992 24.7206 84.9992V85ZM24.7206 38.8043C18.956 38.8043 13.5362 41.0439 9.46067 45.1108C5.38437 49.1777 3.1395 54.585 3.1395 60.3356C3.1395 66.0862 5.38437 71.4943 9.46067 75.5604C13.537 79.6273 18.9567 81.867 24.7206 81.867C30.4846 81.867 35.9051 79.6273 39.9806 75.5604C44.0569 71.4935 46.3018 66.087 46.3018 60.3356C46.3018 54.5843 44.0569 49.177 39.9806 45.1108C35.9043 41.0439 30.4846 38.8043 24.7206 38.8043Z" fill="#919192"/>
<path d="M28.6455 73.5356H20.7964C19.9296 73.5356 19.2263 72.8346 19.2263 71.9691V62.9795H15.7185C15.1575 62.9795 14.6394 62.6813 14.3593 62.1966C14.0791 61.712 14.0791 61.1147 14.3593 60.6301L23.3613 45.077C23.6415 44.5924 24.1603 44.2942 24.7206 44.2942C25.2809 44.2942 25.7997 44.5924 26.0799 45.077L35.0819 60.6301C35.3621 61.1147 35.3621 61.712 35.0819 62.1966C34.8018 62.6813 34.2829 62.9795 33.7227 62.9795H30.2149V71.9691C30.2149 72.8339 29.5123 73.5356 28.6448 73.5356H28.6455ZM22.3658 70.4033H27.0754V61.4138C27.0754 60.549 27.778 59.8473 28.6455 59.8473H31.0041L24.7214 48.9922L18.4386 59.8473H20.7972C21.6639 59.8473 22.3673 60.5482 22.3673 61.4138V70.4033H22.3658Z" fill="#919192"/>
</g>
<defs>
<clipPath id="clip0_2_154">
<rect width="135" height="85" fill="white"/>
</clipPath>
</defs>
</svg>
